<svg width="15" height="25" viewBox="0 0 15 25" fill="none" xmlns="http://www.w3.org/2000/svg">
<path d="M13.2855 25C12.8531 25.0005 12.4373 24.8457 12.1265 24.5684L0.993246 14.6708C0.67919 14.3925 0.42933 14.0586 0.258654 13.6892C0.0879771 13.3197 0 12.9223 0 12.5207C0 12.1191 0.0879771 11.7217 0.258654 11.3522C0.42933 10.9828 0.67919 10.6489 0.993246 10.3706L12.1265 0.472971C12.282 0.323693 12.4686 0.204867 12.6751 0.1236C12.8816 0.0423332 13.1037 0.00029552 13.3282 1.55252e-06C13.5527 -0.000292415 13.775 0.0411634 13.9817 0.121889C14.1884 0.202615 14.3753 0.320952 14.5313 0.469822C14.6873 0.618691 14.8091 0.795035 14.8894 0.988305C14.9698 1.18157 15.007 1.3878 14.9989 1.59464C14.9908 1.80148 14.9375 2.0047 14.8423 2.19212C14.747 2.37955 14.6118 2.54733 14.4446 2.68545L3.38459 12.5207L14.4446 22.3559C14.6844 22.5686 14.8497 22.8425 14.9192 23.1425C14.9887 23.4425 14.9593 23.7548 14.8346 24.0392C14.7099 24.3236 14.4958 24.5671 14.2197 24.7383C13.9436 24.9096 13.6183 25.0007 13.2855 25Z" fill="white"/>
</svg>
