<svg width="20" height="20" viewBox="0 0 20 20" fill="none" xmlns="http://www.w3.org/2000/svg">
<path d="M18.9286 0.364287C18.7334 0.169017 18.4168 0.169017 18.2215 0.364287L10 8.58583L1.77849 0.364287C1.58323 0.169027 1.26665 0.169027 1.07139 0.364287L0.364279 1.07139C0.169019 1.26666 0.169019 1.58324 0.364279 1.7785L8.58582 10L0.364279 18.2215C0.169019 18.4168 0.169019 18.7334 0.364279 18.9286L1.07139 19.6357C1.26665 19.831 1.58323 19.831 1.77849 19.6357L10 11.4142L18.2215 19.6357C18.4168 19.831 18.7334 19.831 18.9286 19.6357L19.6357 18.9286C19.831 18.7334 19.831 18.4168 19.6357 18.2215L11.4142 10L19.6357 1.7785C19.831 1.58324 19.831 1.26665 19.6357 1.07139L18.9286 0.364287Z" fill="#fff"/>
</svg>
