<svg width="64" height="64" viewBox="0 0 64 64" fill="none" xmlns="http://www.w3.org/2000/svg">
<path d="M2 22.529C3.104 22.529 4 21.633 4 20.529V4H20.529C21.633 4 22.529 3.104 22.529 2C22.529 0.896 21.633 0 20.529 0H2C0.896 0 0 0.896 0 2V20.529C0 21.634 0.896 22.529 2 22.529Z" fill="#fff"/>
<path d="M2 64H20.529C21.633 64 22.529 63.104 22.529 62C22.529 60.896 21.633 60 20.529 60H4V43.471C4 42.367 3.104 41.471 2 41.471C0.896 41.471 0 42.367 0 43.471V62C0 63.104 0.896 64 2 64Z" fill="#fff"/>
<path d="M43.471 64H62C63.104 64 64 63.104 64 62V43.471C64 42.367 63.104 41.471 62 41.471C60.896 41.471 60 42.367 60 43.471V60H43.471C42.367 60 41.471 60.896 41.471 62C41.471 63.104 42.366 64 43.471 64Z" fill="#fff"/>
<path d="M43.471 4H60V20.529C60 21.633 60.896 22.529 62 22.529C63.104 22.529 64 21.633 64 20.529V2C64 0.896 63.104 0 62 0H43.471C42.367 0 41.471 0.896 41.471 2C41.471 3.104 42.366 4 43.471 4Z" fill="#fff"/>
</svg>
