<svg width="25" height="24" viewBox="0 0 25 24" fill="none" xmlns="http://www.w3.org/2000/svg">
<path d="M23.3232 6.12641C22.2054 4.24172 20.6892 2.74961 18.7742 1.64975C16.8589 0.549822 14.7679 0 12.4999 0C10.2321 0 8.14048 0.54999 6.22557 1.64975C4.31038 2.74956 2.79423 4.24172 1.67645 6.12641C0.558835 8.01104 0 10.0691 0 12.3005C0 14.9808 0.794672 17.3911 2.38441 19.5319C3.97398 21.6728 6.02747 23.1543 8.54471 23.9764C8.83773 24.0299 9.05464 23.9923 9.19567 23.8644C9.33676 23.7364 9.40722 23.5761 9.40722 23.3841C9.40722 23.3521 9.40443 23.0639 9.39901 22.5193C9.39343 21.9746 9.3908 21.4994 9.3908 21.094L9.01644 21.1577C8.77776 21.2008 8.47665 21.219 8.11312 21.2138C7.74976 21.2088 7.37254 21.1714 6.98199 21.1017C6.59127 21.0326 6.22785 20.8725 5.89146 20.6215C5.55523 20.3706 5.31655 20.0422 5.17546 19.6367L5.0127 19.2681C4.90422 19.0227 4.73343 18.7502 4.5001 18.4514C4.26677 18.1523 4.03082 17.9496 3.79213 17.8428L3.67818 17.7625C3.60224 17.7092 3.53178 17.6448 3.46663 17.5702C3.40152 17.4955 3.35278 17.4208 3.32023 17.346C3.28763 17.2711 3.31465 17.2096 3.40158 17.1614C3.48852 17.1133 3.64563 17.0899 3.8736 17.0899L4.19899 17.1377C4.41601 17.1805 4.68446 17.3084 5.00466 17.522C5.3247 17.7356 5.58778 18.0131 5.79398 18.3547C6.04366 18.7926 6.34449 19.1262 6.6973 19.3559C7.04983 19.5855 7.40527 19.7001 7.76327 19.7001C8.12127 19.7001 8.43047 19.6734 8.69099 19.6202C8.95123 19.5668 9.19539 19.4866 9.42336 19.3799C9.52101 18.6642 9.78689 18.1143 10.2208 17.73C9.60236 17.6661 9.04637 17.5697 8.55252 17.4417C8.05896 17.3134 7.54892 17.1053 7.02275 16.8167C6.4963 16.5285 6.05957 16.1707 5.71246 15.7438C5.36529 15.3166 5.08037 14.7559 4.8581 14.062C4.63572 13.3678 4.5245 12.5671 4.5245 11.6595C4.5245 10.3673 4.95319 9.26765 5.81039 8.35998C5.40884 7.38846 5.44675 6.29936 5.92424 5.0928C6.23891 4.99659 6.70557 5.06879 7.32398 5.30894C7.9425 5.54921 8.39536 5.75504 8.68301 5.92569C8.97067 6.09629 9.20114 6.24085 9.37479 6.3581C10.3841 6.08058 11.4257 5.94179 12.4998 5.94179C13.5739 5.94179 14.6157 6.08058 15.625 6.3581L16.2435 5.97388C16.6664 5.71751 17.1659 5.48257 17.7406 5.269C18.3157 5.05555 18.7554 4.99675 19.0594 5.09296C19.5475 6.29959 19.591 7.38863 19.1893 8.36014C20.0465 9.26782 20.4753 10.3677 20.4753 11.6597C20.4753 12.5673 20.3637 13.3705 20.1417 14.07C19.9193 14.7696 19.632 15.3298 19.2794 15.7518C18.9265 16.1737 18.487 16.5288 17.9608 16.8169C17.4345 17.1052 16.9243 17.3134 16.4308 17.4416C15.937 17.5698 15.381 17.6662 14.7626 17.7303C15.3266 18.2106 15.6087 18.9688 15.6087 20.0045V23.3837C15.6087 23.5756 15.6765 23.7359 15.8123 23.864C15.9479 23.9918 16.1621 24.0295 16.4551 23.9759C18.9727 23.1539 21.0262 21.6724 22.6157 19.5314C24.205 17.3907 25 14.9804 25 12.3C24.9994 10.0689 24.4403 8.01104 23.3232 6.12641Z" fill="white" fill-opacity="0.6"/>
</svg>
