<svg width="135" height="93" viewBox="0 0 135 93" fill="none" xmlns="http://www.w3.org/2000/svg">
<path d="M65.799 47.501C65.803 46.94 65.494 46.424 64.998 46.163C64.502 45.902 63.901 45.939 63.442 46.259C60.184 48.526 56.522 49.581 51.916 49.581C47.311 49.581 43.649 48.525 40.392 46.259C39.933 45.939 39.332 45.902 38.836 46.163C38.34 46.424 38.031 46.94 38.035 47.501C38.09 55.102 44.316 61.285 51.916 61.285C59.515 61.285 65.742 55.102 65.799 47.501ZM41.441 50.347C44.514 51.847 47.969 52.581 51.916 52.581C55.863 52.581 59.318 51.847 62.392 50.347C61.098 54.918 56.88 58.285 51.916 58.285C46.951 58.285 42.733 54.918 41.441 50.347Z" fill="white" fill-opacity="0.22"/>
<path d="M45.095 27.3621C45.924 27.3621 46.595 26.6911 46.595 25.8621C46.595 25.7701 46.587 25.6791 46.572 25.5921C46.428 21.0461 42.685 17.3911 38.104 17.3911C33.433 17.3911 29.632 21.1911 29.632 25.8621C29.632 26.6911 30.304 27.3621 31.132 27.3621H45.075C45.082 27.3631 45.09 27.3631 45.095 27.3621ZM32.841 24.3621C33.495 22.0721 35.607 20.3911 38.104 20.3911C40.601 20.3911 42.712 22.0721 43.367 24.3621H32.841Z" fill="white" fill-opacity="0.22"/>
<path d="M58.759 27.3621H72.701C72.708 27.3631 72.716 27.3621 72.721 27.3621C73.55 27.3621 74.221 26.6911 74.221 25.8621C74.221 25.7701 74.213 25.6791 74.198 25.5921C74.054 21.0461 70.311 17.3911 65.731 17.3911C61.06 17.3911 57.259 21.1911 57.259 25.8621C57.259 26.6911 57.931 27.3621 58.759 27.3621ZM65.73 20.3911C68.227 20.3911 70.338 22.0721 70.992 24.3621H60.468C61.122 22.0721 63.233 20.3911 65.73 20.3911Z" fill="white" fill-opacity="0.22"/>
<path d="M76.307 63.555C75.717 63.479 75.118 63.441 74.527 63.441C67.624 63.441 61.715 68.608 60.784 75.46C60.709 76.016 60.949 76.566 61.407 76.889C61.866 77.211 62.465 77.25 62.964 76.993C66.472 75.166 70.288 74.583 74.819 75.163C79.386 75.749 82.884 77.262 85.827 79.925C86.108 80.179 86.468 80.313 86.834 80.313C87.011 80.313 87.188 80.282 87.358 80.218C87.883 80.022 88.255 79.549 88.323 78.993C89.234 71.446 83.844 64.521 76.307 63.555ZM75.199 72.187C73.956 72.027 72.737 71.947 71.577 71.947C69.069 71.947 66.74 72.315 64.528 73.067C66.206 69.147 70.105 66.441 74.526 66.441C74.99 66.441 75.461 66.471 75.925 66.531C80.849 67.162 84.604 71.038 85.304 75.737C82.447 73.857 79.114 72.689 75.199 72.187Z" fill="white" fill-opacity="0.22"/>
<path d="M83.529 49.229C83.478 49.624 83.586 50.022 83.83 50.337C84.073 50.652 84.432 50.857 84.826 50.908L98.655 52.681C98.719 52.689 98.784 52.693 98.847 52.693C99.59 52.693 100.236 52.141 100.332 51.384C100.621 49.14 100.018 46.918 98.634 45.127C97.25 43.336 95.253 42.192 93.01 41.904C92.65 41.858 92.283 41.834 91.922 41.834C87.679 41.834 84.07 45.014 83.529 49.229ZM92.628 44.88C94.077 45.066 95.367 45.805 96.261 46.962C96.84 47.711 97.207 48.577 97.344 49.488L86.904 48.149C87.837 45.979 90.144 44.564 92.628 44.88Z" fill="white" fill-opacity="0.22"/>
<path d="M112.324 27.001C111.845 26.685 111.228 26.67 110.736 26.963C105.763 29.906 96.556 31.808 87.279 31.808C85.216 31.808 83.275 31.708 81.475 31.521C83.049 22.929 83.834 12.937 83.834 1.50005C83.834 0.927049 83.508 0.404049 82.992 0.152049C82.477 -0.0989513 81.864 -0.0359514 81.412 0.317049C74.864 5.42005 61.003 8.58005 51.916 8.58005C42.828 8.58005 28.969 5.42105 22.422 0.317049C21.97 -0.0349514 21.356 -0.0979514 20.842 0.152049C20.327 0.404049 20 0.927049 20 1.50005C20 43.112 30.329 65.723 51.579 70.626C51.627 70.637 51.676 70.636 51.725 70.643C55.565 81.802 62.443 89.296 72.202 92.907C72.369 92.969 72.546 93 72.723 93C72.773 93 72.822 92.998 72.871 92.993C94.572 90.832 107.695 69.719 112.989 28.446C113.061 27.876 112.804 27.316 112.324 27.001ZM23.017 4.33905C30.654 8.90505 43.135 11.579 51.916 11.579C60.696 11.579 73.18 8.90405 80.817 4.33805C80.47 33.983 74.622 53.1121 63.036 62.2621C62.959 62.3221 62.88 62.377 62.803 62.436C62.207 62.896 61.594 63.3261 60.968 63.7341C60.548 64.0061 60.125 64.275 59.69 64.524C59.512 64.627 59.333 64.727 59.153 64.826C57.047 65.972 54.786 66.867 52.358 67.492C52.323 67.501 52.291 67.518 52.256 67.53C52.141 67.559 52.031 67.595 51.916 67.623C32.928 63.025 23.461 42.307 23.017 4.33905ZM72.918 89.971C64.179 86.633 58.19 80.08 54.653 69.971C63.833 67.152 70.806 60.7381 75.631 50.6171C75.666 50.5431 75.702 50.47 75.737 50.396C76.07 49.689 76.393 48.964 76.705 48.222C78.434 44.16 79.852 39.59 80.936 34.487C82.9 34.7 85.029 34.808 87.279 34.808C94.089 34.808 103.096 33.749 109.633 30.882C104.362 68.48 92.336 87.826 72.918 89.971Z" fill="white" fill-opacity="0.22"/>
<path d="M26.3398 48.9395H16.7578V75H10.3125V48.9395H0.859375V43.7188H26.3398V48.9395ZM48.8555 61.4434H36.4805V69.8223H51.0039V75H30.0352V43.7188H50.9609V48.9395H36.4805V56.3945H48.8555V61.4434ZM72.4453 68.5547H61.1445L58.9961 75H52.1426L63.7871 43.7188H69.7598L81.4688 75H74.6152L72.4453 68.5547ZM62.8848 63.334H70.7051L66.7734 51.625L62.8848 63.334ZM105.359 48.9395H95.7773V75H89.332V48.9395H79.8789V43.7188H105.359V48.9395ZM115.5 63.9785V75H109.055V43.7188H121.258C123.607 43.7188 125.669 44.1484 127.445 45.0078C129.236 45.8672 130.611 47.0918 131.57 48.6816C132.53 50.2572 133.01 52.0547 133.01 54.0742C133.01 57.1393 131.957 59.5599 129.852 61.3359C127.76 63.0977 124.86 63.9785 121.15 63.9785H115.5ZM115.5 58.7578H121.258C122.962 58.7578 124.258 58.3568 125.146 57.5547C126.049 56.7526 126.5 55.6068 126.5 54.1172C126.5 52.5846 126.049 51.3457 125.146 50.4004C124.244 49.4551 122.998 48.9681 121.408 48.9395H115.5V58.7578Z" fill="white" fill-opacity="0.71"/>
<path d="M53.7554 31.7114C53.5617 34.3888 52.5705 36.4966 50.7817 38.0347C49.0044 39.5728 46.6574 40.3418 43.7407 40.3418C40.5506 40.3418 38.0384 39.2708 36.2041 37.1289C34.3812 34.9756 33.4697 32.0247 33.4697 28.2764V26.7554C33.4697 24.3628 33.8913 22.255 34.7344 20.4321C35.5775 18.6092 36.7795 17.2135 38.3403 16.2451C39.9126 15.2653 41.7355 14.7754 43.8091 14.7754C46.6802 14.7754 48.993 15.5444 50.7476 17.0825C52.5021 18.6206 53.5161 20.7796 53.7896 23.5596H48.6626C48.5373 21.9531 48.0872 20.791 47.3125 20.0732C46.5492 19.3441 45.3813 18.9795 43.8091 18.9795C42.1001 18.9795 40.8184 19.5947 39.9639 20.8252C39.1208 22.0443 38.6878 23.9412 38.665 26.5161V28.396C38.665 31.0848 39.0695 33.0501 39.8784 34.292C40.6987 35.5339 41.9862 36.1548 43.7407 36.1548C45.3244 36.1548 46.5036 35.7959 47.2783 35.0781C48.0645 34.349 48.5145 33.2267 48.6284 31.7114H53.7554ZM77.3906 40H72.2466V19.27H62.2832V40H57.1562V15.1172H77.3906V40ZM98.1377 19.27H87.0293V24.0894H91.0283C93.9564 24.0894 96.2749 24.8014 97.9839 26.2256C99.7043 27.6383 100.564 29.5467 100.564 31.9507C100.564 34.366 99.71 36.3086 98.001 37.7783C96.3034 39.2367 94.0418 39.9772 91.2163 40H81.8511V15.1172H98.1377V19.27ZM87.0293 28.2251V35.8813H91.1138C92.424 35.8813 93.4665 35.5225 94.2412 34.8047C95.0273 34.0869 95.4204 33.1242 95.4204 31.9165C95.4204 30.7886 95.0444 29.8999 94.2925 29.2505C93.5519 28.5897 92.5322 28.2479 91.2334 28.2251H87.0293Z" fill="white"/>
</svg>
